# This file uses centimeters as units for non-parametric coordinates.

mtllib building100.mtl
g default
v 4.329452 -5.857015 -2.578411
v 0.000000 -4.463036 -1.989884
v -4.329452 -5.857015 -2.578411
v -1.989884 -4.462220 0.000000
v -4.329452 -5.857015 2.578411
v 0.000000 -4.462220 1.989884
v 4.329453 -5.857015 2.578412
v 1.989884 -4.462220 0.000000
v 1.407060 -2.264075 -1.407060
v 0.000000 -2.283925 -1.989884
v -1.407060 -2.259309 -1.407060
v -1.989884 -2.232443 0.000000
v -1.407060 -2.231110 1.407060
v 0.000000 -1.349995 2.801317
v 1.407060 -2.236475 1.407060
v 1.989884 -2.265281 0.000000
v 1.407060 -0.156830 -1.407060
v 0.000000 -0.121250 -3.586064
v -1.407060 -0.054125 -1.407060
v -1.989884 0.029703 0.000000
v -1.407060 0.005614 1.407060
v 0.000000 -0.013296 0.908374
v 1.407060 -0.100559 1.407060
v 1.989884 -0.211358 0.000000
v 1.407060 3.133838 -1.407060
v 0.000000 3.200732 -1.989884
v -1.407060 3.454044 -1.407060
v -4.132588 4.554865 0.000000
v -1.407060 3.463596 1.407060
v 0.000000 1.906400 1.989884
v 1.407060 3.143491 1.407060
v 4.132588 0.835786 0.000000
v 1.407060 6.313216 -1.407060
v 0.000000 6.313216 -1.989884
v -1.407060 6.390476 -1.407060
v -1.989884 6.512817 0.000000
v -1.407060 6.390476 1.407060
v 0.000000 6.313216 1.989884
v 1.407060 6.313216 1.407060
v 1.989884 6.313216 0.000000
v 0.000000 -4.462220 -0.000000
v 0.000000 8.207466 0.000000
vt 0.610485 0.045765
vt 0.500000 0.000000
vt 0.389515 0.045765
vt 0.343750 0.156250
vt 0.389515 0.266735
vt 0.500000 0.312500
vt 0.610485 0.266735
vt 0.656250 0.156250
vt 0.375000 0.312500
vt 0.406250 0.312500
vt 0.437500 0.312500
vt 0.468750 0.312500
vt 0.500000 0.312500
vt 0.531250 0.312500
vt 0.562500 0.312500
vt 0.593750 0.312500
vt 0.625000 0.312500
vt 0.375000 0.406250
vt 0.406250 0.406250
vt 0.437500 0.406250
vt 0.468750 0.406250
vt 0.500000 0.406250
vt 0.531250 0.406250
vt 0.562500 0.406250
vt 0.593750 0.406250
vt 0.625000 0.406250
vt 0.375000 0.500000
vt 0.406250 0.500000
vt 0.437500 0.500000
vt 0.468750 0.500000
vt 0.500000 0.500000
vt 0.531250 0.500000
vt 0.562500 0.500000
vt 0.593750 0.500000
vt 0.625000 0.500000
vt 0.375000 0.593750
vt 0.406250 0.593750
vt 0.437500 0.593750
vt 0.468750 0.593750
vt 0.500000 0.593750
vt 0.531250 0.593750
vt 0.562500 0.593750
vt 0.593750 0.593750
vt 0.625000 0.593750
vt 0.375000 0.687500
vt 0.406250 0.687500
vt 0.437500 0.687500
vt 0.468750 0.687500
vt 0.500000 0.687500
vt 0.531250 0.687500
vt 0.562500 0.687500
vt 0.593750 0.687500
vt 0.625000 0.687500
vt 0.610485 0.733265
vt 0.500000 0.687500
vt 0.389515 0.733265
vt 0.343750 0.843750
vt 0.389515 0.954235
vt 0.500000 1.000000
vt 0.610485 0.954235
vt 0.656250 0.843750
vt 0.500000 0.156250
vt 0.500000 0.843750
vn 0.794649 -0.188359 -0.577108
vn 0.000091 -0.337921 -0.941174
vn -0.005969 0.029448 -0.999549
vn 0.652523 0.203060 -0.730055
vn -0.795336 -0.186805 -0.576667
vn -0.659203 0.199374 -0.725053
vn -0.984302 -0.176467 -0.003002
vn -0.963087 0.269183 -0.002175
vn -0.799956 -0.217101 0.559409
vn -0.659942 0.282113 0.696339
vn -0.000034 -0.392631 0.919696
vn 0.001230 0.219937 0.975513
vn 0.799289 -0.218634 0.559764
vn 0.657091 0.285942 0.697473
vn 0.984133 -0.177409 -0.002954
vn 0.960723 0.277499 -0.002207
vn -0.002848 0.022839 -0.999735
vn 0.699055 -0.079172 -0.710671
vn -0.733582 -0.065609 -0.676426
vn -0.983769 -0.179435 -0.001462
vn -0.610850 -0.054451 0.789872
vn -0.007647 0.082416 0.996569
vn 0.529715 -0.064693 0.845705
vn 0.963688 -0.267030 0.000363
vn 0.000295 0.133956 -0.990987
vn 0.627401 0.067831 -0.775736
vn -0.615474 0.030324 -0.787573
vn -0.999997 -0.002272 -0.000788
vn -0.523327 -0.036162 0.851365
vn 0.002040 -0.097411 0.995242
vn 0.531710 0.001199 0.846925
vn 0.999887 -0.015020 -0.001052
vn 0.009770 0.195399 -0.980675
vn 0.604262 0.236230 -0.760962
vn -0.506077 0.285914 -0.813720
vn -0.868393 0.495876 -0.001347
vn -0.499289 0.267266 0.824184
vn 0.007979 0.168052 0.985746
vn 0.593400 0.223233 0.773333
vn 0.944024 0.329876 -0.000891
vn -0.000000 -1.000000 0.000156
vn 0.035805 0.999359 0.000000
s 1
g pCylinder1
usemtl initialShadingGroup
f 1/9/1 2/10/2 10/19/3 9/18/4
f 2/10/2 3/11/5 11/20/6 10/19/3
f 3/11/5 4/12/7 12/21/8 11/20/6
f 4/12/7 5/13/9 13/22/10 12/21/8
f 5/13/9 6/14/11 14/23/12 13/22/10
f 6/14/11 7/15/13 15/24/14 14/23/12
f 7/15/13 8/16/15 16/25/16 15/24/14
f 8/16/15 1/17/1 9/26/4 16/25/16
f 9/18/4 10/19/3 18/28/17 17/27/18
f 10/19/3 11/20/6 19/29/19 18/28/17
f 11/20/6 12/21/8 20/30/20 19/29/19
f 12/21/8 13/22/10 21/31/21 20/30/20
f 13/22/10 14/23/12 22/32/22 21/31/21
f 14/23/12 15/24/14 23/33/23 22/32/22
f 15/24/14 16/25/16 24/34/24 23/33/23
f 16/25/16 9/26/4 17/35/18 24/34/24
f 17/27/18 18/28/17 26/37/25 25/36/26
f 18/28/17 19/29/19 27/38/27 26/37/25
f 19/29/19 20/30/20 28/39/28 27/38/27
f 20/30/20 21/31/21 29/40/29 28/39/28
f 21/31/21 22/32/22 30/41/30 29/40/29
f 22/32/22 23/33/23 31/42/31 30/41/30
f 23/33/23 24/34/24 32/43/32 31/42/31
f 24/34/24 17/35/18 25/44/26 32/43/32
f 25/36/26 26/37/25 34/46/33 33/45/34
f 26/37/25 27/38/27 35/47/35 34/46/33
f 27/38/27 28/39/28 36/48/36 35/47/35
f 28/39/28 29/40/29 37/49/37 36/48/36
f 29/40/29 30/41/30 38/50/38 37/49/37
f 30/41/30 31/42/31 39/51/39 38/50/38
f 31/42/31 32/43/32 40/52/40 39/51/39
f 32/43/32 25/44/26 33/53/34 40/52/40
f 2/2/2 1/1/1 41/62/41
f 3/3/5 2/2/2 41/62/41
f 4/4/7 3/3/5 41/62/41
f 5/5/9 4/4/7 41/62/41
f 6/6/11 5/5/9 41/62/41
f 7/7/13 6/6/11 41/62/41
f 8/8/15 7/7/13 41/62/41
f 1/1/1 8/8/15 41/62/41
f 33/60/34 34/59/33 42/63/42
f 34/59/33 35/58/35 42/63/42
f 35/58/35 36/57/36 42/63/42
f 36/57/36 37/56/37 42/63/42
f 37/56/37 38/55/38 42/63/42
f 38/55/38 39/54/39 42/63/42
f 39/54/39 40/61/40 42/63/42
f 40/61/40 33/60/34 42/63/42
g default
v 1.299281 4.700456 -1.323161
v -0.022327 4.700456 -1.870589
v -1.343935 4.700456 -1.323161
v -1.891362 4.700456 -0.001553
v -1.343935 4.700456 1.320055
v -0.022327 4.700456 1.867482
v 1.299281 4.700456 1.320055
v 1.846709 4.700456 -0.001553
v 2.419686 4.907061 -2.443566
v -0.022327 4.907061 -3.455080
v -2.468412 4.907061 -2.446028
v -3.481437 4.907061 -0.000371
v -2.468412 4.907061 2.445287
v -0.022754 4.907061 3.458312
v 2.422903 4.907061 2.445287
v 3.435928 4.907061 -0.000371
v 3.171038 5.216268 -3.194444
v -0.022595 5.216268 -4.517289
v -3.229081 5.216268 -3.203309
v -4.556813 5.216268 0.002118
v -3.229081 5.216268 3.207545
v -0.023654 5.216268 4.535276
v 3.181773 5.216268 3.207546
v 4.509505 5.216268 0.002118
v 3.439699 5.581003 -3.462222
v -0.023096 5.581003 -4.896559
v -3.503790 5.581003 -3.474959
v -4.944973 5.581003 0.004364
v -3.503790 5.581003 3.483688
v -0.024467 5.581003 4.924872
v 3.454857 5.581003 3.483688
v 4.896041 5.581003 0.004364
v 3.180983 5.945737 -3.202657
v -0.023576 5.945737 -4.530029
v -3.229081 5.945737 -3.203309
v -4.556813 5.945737 0.002118
v -3.229081 5.945737 3.207545
v -0.023654 5.945737 4.535276
v 3.181773 5.945737 3.207546
v 4.509505 5.945737 0.002118
v 2.422903 6.254944 -2.446028
v -0.022754 6.254944 -3.459053
v -2.468412 6.254944 -2.446028
v -3.481437 6.254944 -0.000371
v -2.468412 6.254944 2.445287
v -0.022754 6.254944 3.458312
v 2.422903 6.254944 2.445287
v 3.435928 6.254944 -0.000371
v 1.299281 6.461550 -1.323161
v -0.022327 6.461550 -1.870589
v -1.343935 6.461550 -1.323161
v -1.891362 6.461550 -0.001553
v -1.343935 6.461550 1.320055
v -0.022327 6.461550 1.867482
v 1.299281 6.461550 1.320055
v 1.846709 6.461550 -0.001553
vt 0.000000 0.125000
vt 0.125000 0.125000
vt 0.250000 0.125000
vt 0.375000 0.125000
vt 0.500000 0.125000
vt 0.625000 0.125000
vt 0.750000 0.125000
vt 0.875000 0.125000
vt 1.000000 0.125000
vt 0.000000 0.250000
vt 0.125000 0.250000
vt 0.250000 0.250000
vt 0.375000 0.250000
vt 0.500000 0.250000
vt 0.625000 0.250000
vt 0.750000 0.250000
vt 0.875000 0.250000
vt 1.000000 0.250000
vt 0.000000 0.375000
vt 0.125000 0.375000
vt 0.250000 0.375000
vt 0.375000 0.375000
vt 0.500000 0.375000
vt 0.625000 0.375000
vt 0.750000 0.375000
vt 0.875000 0.375000
vt 1.000000 0.375000
vt 0.000000 0.500000
vt 0.125000 0.500000
vt 0.250000 0.500000
vt 0.375000 0.500000
vt 0.500000 0.500000
vt 0.625000 0.500000
vt 0.750000 0.500000
vt 0.875000 0.500000
vt 1.000000 0.500000
vt 0.000000 0.625000
vt 0.125000 0.625000
vt 0.250000 0.625000
vt 0.375000 0.625000
vt 0.500000 0.625000
vt 0.625000 0.625000
vt 0.750000 0.625000
vt 0.875000 0.625000
vt 1.000000 0.625000
vt 0.000000 0.750000
vt 0.125000 0.750000
vt 0.250000 0.750000
vt 0.375000 0.750000
vt 0.500000 0.750000
vt 0.625000 0.750000
vt 0.750000 0.750000
vt 0.875000 0.750000
vt 1.000000 0.750000
vt 0.000000 0.875000
vt 0.125000 0.875000
vt 0.250000 0.875000
vt 0.375000 0.875000
vt 0.500000 0.875000
vt 0.625000 0.875000
vt 0.750000 0.875000
vt 0.875000 0.875000
vt 1.000000 0.875000
vn 0.091355 -0.991614 -0.091416
vn 0.000042 -0.991614 -0.129239
vn 0.000192 -0.975801 -0.218661
vn 0.154474 -0.975802 -0.154751
vn -0.091158 -0.991646 -0.091256
vn -0.153786 -0.976006 -0.154149
vn -0.128851 -0.991664 -0.000016
vn -0.217216 -0.976123 -0.000033
vn -0.091077 -0.991671 0.091066
vn -0.153463 -0.976168 0.153442
vn 0.000006 -0.991672 0.128791
vn 0.000012 -0.976171 0.217002
vn 0.091117 -0.991665 0.091095
vn 0.153597 -0.976130 0.153551
vn 0.128979 -0.991647 -0.000071
vn 0.217717 -0.976012 -0.000264
vn 0.000619 -0.889272 -0.457379
vn 0.322950 -0.889287 -0.323839
vn -0.320930 -0.890698 -0.321963
vn -0.452805 -0.891610 -0.000012
vn -0.319674 -0.891977 0.319666
vn 0.000004 -0.891999 0.452037
vn 0.320113 -0.891664 0.320097
vn 0.454496 -0.890749 -0.000749
vn 0.001200 -0.011632 -0.999932
vn 0.706200 -0.011702 -0.707916
vn -0.706281 -0.004360 -0.707918
vn -1.000000 -0.000000 0.000267
vn -0.707021 -0.000000 0.707192
vn -0.000097 0.000000 1.000000
vn 0.706925 0.000000 0.707289
vn 0.999990 -0.004435 -0.001182
vn 0.000261 0.888574 -0.458733
vn 0.324177 0.888585 -0.324539
vn -0.321614 0.890397 -0.322114
vn -0.452805 0.891610 -0.000012
vn -0.319674 0.891977 0.319666
vn 0.000004 0.891999 0.452037
vn 0.320113 0.891664 0.320097
vn 0.455098 0.890441 -0.000362
vn 0.000020 0.976003 -0.217758
vn 0.153953 0.976005 -0.153986
vn -0.153774 0.976057 -0.153836
vn -0.217216 0.976123 -0.000033
vn -0.153463 0.976168 0.153442
vn 0.000012 0.976171 0.217002
vn 0.153597 0.976130 0.153551
vn 0.217483 0.976064 -0.000045
vn 0.000006 0.991647 -0.128980
vn 0.091195 0.991648 -0.091205
vn -0.091155 0.991654 -0.091177
vn -0.128851 0.991664 -0.000016
vn -0.091077 0.991671 0.091066
vn 0.000006 0.991672 0.128791
vn 0.091117 0.991665 0.091095
vn 0.128920 0.991655 -0.000016
s 1
g pSphere1
usemtl initialShadingGroup
f 43/64/43 44/65/44 52/74/45 51/73/46
f 44/65/44 45/66/47 53/75/48 52/74/45
f 45/66/47 46/67/49 54/76/50 53/75/48
f 46/67/49 47/68/51 55/77/52 54/76/50
f 47/68/51 48/69/53 56/78/54 55/77/52
f 48/69/53 49/70/55 57/79/56 56/78/54
f 49/70/55 50/71/57 58/80/58 57/79/56
f 50/71/57 43/72/43 51/81/46 58/80/58
f 51/73/46 52/74/45 60/83/59 59/82/60
f 52/74/45 53/75/48 61/84/61 60/83/59
f 53/75/48 54/76/50 62/85/62 61/84/61
f 54/76/50 55/77/52 63/86/63 62/85/62
f 55/77/52 56/78/54 64/87/64 63/86/63
f 56/78/54 57/79/56 65/88/65 64/87/64
f 57/79/56 58/80/58 66/89/66 65/88/65
f 58/80/58 51/81/46 59/90/60 66/89/66
f 59/82/60 60/83/59 68/92/67 67/91/68
f 60/83/59 61/84/61 69/93/69 68/92/67
f 61/84/61 62/85/62 70/94/70 69/93/69
f 62/85/62 63/86/63 71/95/71 70/94/70
f 63/86/63 64/87/64 72/96/72 71/95/71
f 64/87/64 65/88/65 73/97/73 72/96/72
f 65/88/65 66/89/66 74/98/74 73/97/73
f 66/89/66 59/90/60 67/99/68 74/98/74
f 67/91/68 68/92/67 76/101/75 75/100/76
f 68/92/67 69/93/69 77/102/77 76/101/75
f 69/93/69 70/94/70 78/103/78 77/102/77
f 70/94/70 71/95/71 79/104/79 78/103/78
f 71/95/71 72/96/72 80/105/80 79/104/79
f 72/96/72 73/97/73 81/106/81 80/105/80
f 73/97/73 74/98/74 82/107/82 81/106/81
f 74/98/74 67/99/68 75/108/76 82/107/82
f 75/100/76 76/101/75 84/110/83 83/109/84
f 76/101/75 77/102/77 85/111/85 84/110/83
f 77/102/77 78/103/78 86/112/86 85/111/85
f 78/103/78 79/104/79 87/113/87 86/112/86
f 79/104/79 80/105/80 88/114/88 87/113/87
f 80/105/80 81/106/81 89/115/89 88/114/88
f 81/106/81 82/107/82 90/116/90 89/115/89
f 82/107/82 75/108/76 83/117/84 90/116/90
f 83/109/84 84/110/83 92/119/91 91/118/92
f 84/110/83 85/111/85 93/120/93 92/119/91
f 85/111/85 86/112/86 94/121/94 93/120/93
f 86/112/86 87/113/87 95/122/95 94/121/94
f 87/113/87 88/114/88 96/123/96 95/122/95
f 88/114/88 89/115/89 97/124/97 96/123/96
f 89/115/89 90/116/90 98/125/98 97/124/97
f 90/116/90 83/117/84 91/126/92 98/125/98
